<svg xmlns="http://www.w3.org/2000/svg" xmlns:xlink="http://www.w3.org/1999/xlink" viewBox="0 0 650.39 193.69"><defs><style>.cls-1{fill:#b41147;}.cls-2,.cls-3{fill:#59251b;}.cls-3,.cls-4,.cls-5,.cls-6,.cls-7{fill-rule:evenodd;}.cls-4{fill:#fffcf5;}.cls-5{fill:#f1e3d6;}.cls-13,.cls-22,.cls-6{fill:#fff;}.cls-7{fill:#ff8884;}.cls-8{fill:#ff4343;}.cls-10,.cls-11,.cls-12,.cls-13,.cls-14,.cls-15,.cls-16,.cls-17,.cls-18,.cls-23,.cls-8,.cls-9{stroke:#572319;}.cls-10,.cls-11,.cls-12,.cls-13,.cls-14,.cls-15,.cls-16,.cls-17,.cls-8,.cls-9{stroke-linecap:round;stroke-linejoin:round;stroke-width:9px;}.cls-18,.cls-9{fill:none;}.cls-10,.cls-24,.cls-28{opacity:0.05;}.cls-11,.cls-19{opacity:0.1;}.cls-12,.cls-20{opacity:0.15;}.cls-14,.cls-23{fill:#7d5d53;}.cls-15,.cls-25{fill:#572319;}.cls-16{fill:#fcd73d;}.cls-17{fill:#4946d1;}.cls-18,.cls-23{stroke-miterlimit:10;}.cls-21{opacity:0.2;}.cls-26{fill:#f9e487;}.cls-27{fill:#a2a2e0;}.cls-28{fill:url(#linear-gradient);}</style><linearGradient id="linear-gradient" x1="40.1" y1="100.37" x2="140.38" y2="100.37" gradientUnits="userSpaceOnUse"><stop offset="0" stop-color="#fff"/><stop offset="1"/></linearGradient></defs><g id="Layer_2" data-name="Layer 2"><g id="Layer_1-2" data-name="Layer 1"><path class="cls-1" d="M200.94,118.34V4.07h76.18v7.62h7.62V65h-7.62v7.62H223.79v45.71Zm60.94-68.56V26.92H223.79V49.78Z"/><path class="cls-1" d="M300,118.34v-7.62h-7.62v-99H300V4.07h68.56v7.62h7.62v99h-7.62v7.62Zm53.32-22.86V26.92H315.21V95.48Z"/><path class="cls-1" d="M391.38,118.34v-7.62h-7.61V4.07h22.85V95.48h60.94v22.86Z"/><path class="cls-1" d="M482.8,118.34v-7.62h-7.62V4.07H498V95.48H559v22.86Z"/><path class="cls-1" d="M574.21,118.34v-7.62h-7.62V87.87h22.85v7.61h38.09V72.63H574.21V65h-7.62V4.07h22.85V49.78h38.09V4.07h22.86V110.72h-7.62v7.62Z"/><path class="cls-2" d="M228.18,162.57a14.11,14.11,0,0,1-1,5.3,12.35,12.35,0,0,1-2.75,4.21,12.58,12.58,0,0,1-4.23,2.77,14.21,14.21,0,0,1-5.39,1,12.3,12.3,0,0,1-5.43-1.25,11.38,11.38,0,0,1-2-1.28,5.52,5.52,0,0,1-1.28-1.43q0,.3,0,.63c0,.23,0,.44,0,.64v2.08h-5.24V127.89h5.24v25.6a8.63,8.63,0,0,1,1.31-1.49,10.15,10.15,0,0,1,1.95-1.4,12.66,12.66,0,0,1,2.53-1.07,10.82,10.82,0,0,1,3.11-.43,14.45,14.45,0,0,1,5.33,1,11.59,11.59,0,0,1,6.83,6.91A15.8,15.8,0,0,1,228.18,162.57Zm-5.67-.12a9.53,9.53,0,0,0-.54-3.26,7.43,7.43,0,0,0-4.09-4.33,8.22,8.22,0,0,0-3.29-.64,8.88,8.88,0,0,0-3.38.64,8,8,0,0,0-2.65,1.74,8.15,8.15,0,0,0-2.38,5.85,8.32,8.32,0,0,0,.64,3.29,7.88,7.88,0,0,0,4.39,4.36,8.88,8.88,0,0,0,3.38.64,8.22,8.22,0,0,0,3.29-.64,7.37,7.37,0,0,0,2.5-1.77,7.84,7.84,0,0,0,1.59-2.62A9.49,9.49,0,0,0,222.51,162.45Z"/><path class="cls-2" d="M239.94,187.5H234.7l1.62-3.38c.5-1.08,1-2.18,1.52-3.3s1-2.27,1.56-3.47,1.11-2.49,1.76-3.87c-.93-1.83-1.89-3.75-2.86-5.76s-2-4-2.93-6.06-1.94-4.07-2.89-6.1-1.9-4-2.84-5.79h5.67q2.19,4.33,3.63,7.32t2.37,5.15c.63,1.44,1.14,2.67,1.53,3.68s.72,2,1,2.81l1.07-2.81c.38-1,.89-2.24,1.52-3.68s1.42-3.16,2.38-5.15,2.16-4.43,3.63-7.32h5.66Z"/><path class="cls-2" d="M277.91,175.25V131.06h11.7a25.08,25.08,0,0,1,5.85.64,12.3,12.3,0,0,1,4.45,2,9.22,9.22,0,0,1,2.83,3.54,12.45,12.45,0,0,1,1,5.27,16.92,16.92,0,0,1-.34,3.35,10.54,10.54,0,0,1-1.09,3,8.3,8.3,0,0,1-2,2.41,8.58,8.58,0,0,1-3.07,1.58,13.61,13.61,0,0,1,3.14,1,9.38,9.38,0,0,1,4.75,5.06,11.16,11.16,0,0,1,.76,4.32,11.31,11.31,0,0,1-1.22,5.43,11.05,11.05,0,0,1-3.23,3.72,13.56,13.56,0,0,1-4.63,2.13,22.17,22.17,0,0,1-5.42.67Zm6.7-38.15v13h6a6.1,6.1,0,0,0,4.94-1.95,7.1,7.1,0,0,0,1.65-4.75,5.7,5.7,0,0,0-2-4.82,8.49,8.49,0,0,0-5.28-1.52Zm0,18.71v13.4h6.22a12.74,12.74,0,0,0,3.32-.42,8.35,8.35,0,0,0,2.71-1.25,6,6,0,0,0,1.83-2.1,6.34,6.34,0,0,0,.67-3,5.83,5.83,0,0,0-.79-3.14,6.4,6.4,0,0,0-2.1-2,9.38,9.38,0,0,0-3-1.13,17.83,17.83,0,0,0-3.44-.33Z"/><path class="cls-2" d="M310,162.75a13.21,13.21,0,0,1,1.07-5.27,14.12,14.12,0,0,1,7.13-7.28,12.27,12.27,0,0,1,5.15-1.1,11.74,11.74,0,0,1,3.35.46,11.16,11.16,0,0,1,2.62,1.13,8,8,0,0,1,1.77,1.4,5.21,5.21,0,0,1,.92,1.28l.24-3.6h5v25.48H332V172a7.17,7.17,0,0,1-1,1.15,7.35,7.35,0,0,1-1.74,1.25,12.13,12.13,0,0,1-5.88,1.44,13.44,13.44,0,0,1-5.39-1.07,13,13,0,0,1-7-7A12.69,12.69,0,0,1,310,162.75Zm5.24-.3a8.5,8.5,0,0,0,.64,3.29,8.11,8.11,0,0,0,1.74,2.62,8.22,8.22,0,0,0,2.62,1.74,8.73,8.73,0,0,0,3.35.64,9,9,0,0,0,3.39-.64,8.24,8.24,0,0,0,2.68-1.77,7.9,7.9,0,0,0,1.74-2.62,9,9,0,0,0,0-6.52,7.58,7.58,0,0,0-1.74-2.59,8.5,8.5,0,0,0-2.68-1.74,9,9,0,0,0-3.39-.64,8.73,8.73,0,0,0-3.35.64,8,8,0,0,0-4.36,4.33A8.31,8.31,0,0,0,315.26,162.45Z"/><path class="cls-2" d="M342.81,162.45a12.81,12.81,0,0,1,1.07-5.18,13.46,13.46,0,0,1,2.89-4.24,14.06,14.06,0,0,1,4.3-2.86,13.81,13.81,0,0,1,10.66,0A13.68,13.68,0,0,1,366,153a12.9,12.9,0,0,1,2.8,4.24,13.79,13.79,0,0,1,0,10.36,13.06,13.06,0,0,1-7.07,7.16,13.44,13.44,0,0,1-5.39,1.07,14.19,14.19,0,0,1-5.27-1,12.73,12.73,0,0,1-7.19-7A13.67,13.67,0,0,1,342.81,162.45Zm5.18.06a8.13,8.13,0,0,0,.64,3.2A8.32,8.32,0,0,0,353,170.1a8.16,8.16,0,0,0,3.2.64,8.29,8.29,0,0,0,5.88-2.41,8.73,8.73,0,0,0,1.8-2.62,7.81,7.81,0,0,0,.67-3.2,8.05,8.05,0,0,0-.67-3.23,8.75,8.75,0,0,0-1.8-2.65,8.29,8.29,0,0,0-5.88-2.41,8.16,8.16,0,0,0-3.2.64,8.27,8.27,0,0,0-5,7.65Z"/><path class="cls-2" d="M375,171.84a3.25,3.25,0,0,1,1.06-2.47,3.45,3.45,0,0,1,2.41-1,3.31,3.31,0,0,1,2.29,1,3.26,3.26,0,0,1,1.07,2.47,3.1,3.1,0,0,1-1.07,2.49,3.47,3.47,0,0,1-2.29.92,3.64,3.64,0,0,1-2.41-.92A3.09,3.09,0,0,1,375,171.84Z"/><path class="cls-2" d="M390.53,175.25V131.06H417v6.16H397.17v13.35h17.31v6.21H397.17v18.47Z"/><path class="cls-2" d="M420.69,140a3.16,3.16,0,0,1,1.07-2.43,3.34,3.34,0,0,1,2.29-1,3.45,3.45,0,0,1,3.29,3.41,3.12,3.12,0,0,1-1,2.41,3.28,3.28,0,0,1-2.25.95,3.39,3.39,0,0,1-2.29-.95A3.08,3.08,0,0,1,420.69,140Zm5.85,35.23h-5.18V149.77h5.18Z"/><path class="cls-2" d="M433.86,149.77h4.57q.12,1.89.21,3.45c.06,1,.13,2.06.21,3.08a12.58,12.58,0,0,1,4-5.25,10.24,10.24,0,0,1,6.36-2,8.76,8.76,0,0,1,6.16,2.14,7.56,7.56,0,0,1,2.44,5.48v18.53h-5.25V159.1a5.34,5.34,0,0,0-1.33-3.32,5.28,5.28,0,0,0-3.85-1.5,8.73,8.73,0,0,0-3.35.64,8.22,8.22,0,0,0-2.62,1.74,8,8,0,0,0-1.73,2.62,8.51,8.51,0,0,0-.64,3.35v12.62h-5.18Z"/><path class="cls-2" d="M463.11,162.75a13.2,13.2,0,0,1,1.06-5.27,14.12,14.12,0,0,1,7.13-7.28,12.34,12.34,0,0,1,5.15-1.1,11.87,11.87,0,0,1,3.36.46,11.35,11.35,0,0,1,2.62,1.13,7.68,7.68,0,0,1,1.76,1.4,5.21,5.21,0,0,1,.92,1.28l.24-3.6h5v25.48h-5.24V172a7.17,7.17,0,0,1-1,1.15,7.28,7.28,0,0,1-1.73,1.25,12.7,12.7,0,0,1-2.53,1,12.21,12.21,0,0,1-3.35.43,13.48,13.48,0,0,1-5.4-1.07,13.09,13.09,0,0,1-7-7A12.68,12.68,0,0,1,463.11,162.75Zm5.24-.3a8.32,8.32,0,0,0,.64,3.29,7.8,7.8,0,0,0,1.74,2.62,8.11,8.11,0,0,0,2.62,1.74,8.66,8.66,0,0,0,3.35.64,8.92,8.92,0,0,0,3.38-.64,8.13,8.13,0,0,0,2.68-1.77,7.9,7.9,0,0,0,1.74-2.62,9,9,0,0,0,0-6.52,7.58,7.58,0,0,0-1.74-2.59,8.38,8.38,0,0,0-2.68-1.74,8.92,8.92,0,0,0-3.38-.64,8.66,8.66,0,0,0-3.35.64,8.11,8.11,0,0,0-2.62,1.74,7.87,7.87,0,0,0-1.74,2.59A8.14,8.14,0,0,0,468.35,162.45Z"/><path class="cls-2" d="M497.66,149.77h4.57c.08,1.26.15,2.41.22,3.45s.13,2.06.21,3.08a12.48,12.48,0,0,1,4-5.25,10.29,10.29,0,0,1,6.37-2,8.72,8.72,0,0,1,6.15,2.14,7.48,7.48,0,0,1,2.44,5.48v18.53h-5.24V159.1a5.34,5.34,0,0,0-1.34-3.32,5.24,5.24,0,0,0-3.84-1.5,8.66,8.66,0,0,0-3.35.64,8.11,8.11,0,0,0-2.62,1.74,8.22,8.22,0,0,0-1.74,2.62,8.69,8.69,0,0,0-.64,3.35v12.62h-5.18Z"/><path class="cls-2" d="M545.74,169l1.62,2c.51.63,1,1.29,1.55,2a13.62,13.62,0,0,1-3.83,2.13,13.67,13.67,0,0,1-9.91-.27,13.62,13.62,0,0,1-4.3-2.89,14,14,0,0,1-2.89-4.27,13.07,13.07,0,0,1,0-10.36,13.63,13.63,0,0,1,2.89-4.24,14.06,14.06,0,0,1,4.3-2.86,13.17,13.17,0,0,1,5.27-1.07,13.55,13.55,0,0,1,4.72.8A14.82,14.82,0,0,1,549.1,152l-3.36,4a7.4,7.4,0,0,0-2.37-1.31,9.18,9.18,0,0,0-2.93-.46,8.66,8.66,0,0,0-3.35.64,8.47,8.47,0,0,0-2.65,1.74,7.58,7.58,0,0,0-1.74,2.59,9,9,0,0,0,0,6.52,7.9,7.9,0,0,0,1.74,2.62,8.21,8.21,0,0,0,2.65,1.77,8.66,8.66,0,0,0,3.35.64,8.91,8.91,0,0,0,2.93-.46A7.4,7.4,0,0,0,545.74,169Z"/><path class="cls-2" d="M574.69,172.26a13.64,13.64,0,0,1-4.45,2.62,15.26,15.26,0,0,1-5.36,1,13.14,13.14,0,0,1-5.27-1.07,13.88,13.88,0,0,1-4.3-2.86,13.19,13.19,0,0,1-2.89-4.24,13.07,13.07,0,0,1,0-10.36,13.65,13.65,0,0,1,2.89-4.27,14.07,14.07,0,0,1,4.23-2.89,12.64,12.64,0,0,1,5.15-1.07,11.63,11.63,0,0,1,7.53,2.59,14.39,14.39,0,0,1,4.6,6.8c-1.26.45-2.7,1-4.32,1.64l-5.06,2q-2.62,1.08-5.24,2.11t-4.88,1.89a8.26,8.26,0,0,0,7.44,4.57,9.62,9.62,0,0,0,3.32-.61,7.4,7.4,0,0,0,2.71-1.65Zm-4.39-15A4.85,4.85,0,0,0,568,155a7.53,7.53,0,0,0-3.23-.76,8,8,0,0,0-3.26.67,8.52,8.52,0,0,0-2.6,1.8,8.77,8.77,0,0,0-1.73,2.59,7.35,7.35,0,0,0-.64,3,2,2,0,0,0,0,.42.89.89,0,0,1,0,.19l3.44-1.37,3.69-1.53,3.53-1.46Z"/></g><g id="Layer_2-2" data-name="Layer 2"><g id="Happy"><path class="cls-3" d="M127.17,61.55c26.5,12.33,43.94,33.85,46.61,63.83,1.14,12.72-1.53,25.05-8.68,35.72C149.31,184.68,117,193.69,90,193.69s-59.27-9-75.07-32.59c-7.14-10.67-9.81-23-8.67-35.72C9,95.4,26.4,73.88,52.9,61.55A18.25,18.25,0,0,1,75.81,44.62a18.26,18.26,0,0,1,28.45,0,18.25,18.25,0,0,1,22.91,16.93Z"/><path class="cls-4" d="M122.13,61.51A13.21,13.21,0,0,0,102.2,50.89c-2.27,1.22-5.7,5.58-6.83,8.67a19.58,19.58,0,0,1,5.09-11.62,13.21,13.21,0,0,0-22.59,3c-1.06,2.35-1.14,7.9-.16,11a19.64,19.64,0,0,1-3-12.4A13.21,13.21,0,0,0,57.92,62.25a13.43,13.43,0,0,0,.23,2.47h0c.62,2.5,4,6.91,6.7,8.77a19.4,19.4,0,0,1-9.71-7.43C30,77.7,13.8,97.77,11.3,125.83c-7.48,83.77,165,83.77,157.47,0-2.6-29.17-20-49.71-46.85-61.11-2.18-1.38-7.66-2.24-10.91-1.7A19,19,0,0,1,122.13,61.51Z"/><path class="cls-5" d="M64.85,73.49a19.4,19.4,0,0,1-9.71-7.43c-.91.42-1.8.85-2.69,1.3C55.37,70.83,59.68,72.86,64.85,73.49Z"/><path class="cls-5" d="M77.44,60.9c.08.36.17.71.27,1l-.27-1Zm.27,1C74.26,58,72.38,53.65,72.5,49.11a13.16,13.16,0,0,1,2.2.42A19.64,19.64,0,0,0,77.71,61.93Z"/><path class="cls-5" d="M95.49,59.25l-.12.31.12-.31Zm-.12.31c-.54-5.22.5-9.89,3.28-13.53a13.61,13.61,0,0,1,1.81,1.91A19.58,19.58,0,0,0,95.37,59.56Z"/><path class="cls-5" d="M122.13,61.51a14,14,0,0,0-.49-2.92A19.72,19.72,0,0,0,111,63,19,19,0,0,1,122.13,61.51Z"/><path class="cls-3" d="M90.06,135.3a13.89,13.89,0,0,1,2.22,0c.56.12.9.43.89.76s-.36.64-.92,1a5.81,5.81,0,0,1-2.22.73,5.75,5.75,0,0,1-2.22-.73c-.56-.31-.92-.61-.92-1s.37-.64,1-.75A15,15,0,0,1,90.06,135.3Z"/><path class="cls-3" d="M80.31,151.8c3.1-.46,6.37-2.37,9.72-4.85,3.35,2.48,6.63,4.39,9.73,4.85,6,.89,8.51-2.68,9.81-4-1.39,3.42-5.91,5.72-9.38,5.56l0,.1a6.46,6.46,0,0,1-3.59,4.14,15.21,15.21,0,0,1-13.09,0,6.5,6.5,0,0,1-3.6-4.14l0-.1c-3.46.16-8-2.14-9.37-5.56C71.8,149.12,74.26,152.69,80.31,151.8Z"/><path class="cls-3" d="M82.77,91.26c9.4-4,9.49-16.32,5.28-21.42C88.62,79.41,86.69,86.38,82.77,91.26Z"/><path class="cls-3" d="M92.58,72.8c2.25,8.94,6.43,11.44,11.66,10.5C95.33,77.17,95.35,75.72,92.58,72.8Z"/><path class="cls-3" d="M84.09,72.73c.66,5.5-4.9,11.77-9.25,11.21C78.55,81.89,81.45,77.26,84.09,72.73Z"/><path class="cls-3" d="M56.84,117.26a10.43,10.43,0,1,1-10.43,10.43A10.42,10.42,0,0,1,56.84,117.26Z"/><path class="cls-6" d="M59.87,119.14a4.8,4.8,0,1,1-4.8,4.79A4.79,4.79,0,0,1,59.87,119.14Z"/><path class="cls-7" d="M98.92,153.21c-.55,2.6-4.32,4.61-8.89,4.61s-8.33-2-8.89-4.61A24.42,24.42,0,0,0,90,148.85,24.5,24.5,0,0,0,98.92,153.21Z"/><path class="cls-5" d="M20.91,160.73c35.42,46.53,154.09,34.91,147.86-34.9a69.89,69.89,0,0,0-10.29-31.45c9.64,55.06-14.73,90.23-79.26,86.43C59.56,179.65,38.5,172.22,20.91,160.73Z"/><path class="cls-3" d="M123.23,117.26a10.43,10.43,0,1,0,10.43,10.43A10.43,10.43,0,0,0,123.23,117.26Z"/><path class="cls-6" d="M120.2,119.14a4.8,4.8,0,1,0,4.8,4.79A4.79,4.79,0,0,0,120.2,119.14Z"/></g><polygon class="cls-8" points="39.23 106.74 141.23 106.74 165.42 100.55 165.23 85.79 142.56 58.93 119.71 43.98 100.47 39.02 78.95 39.02 60.09 44.17 37.61 59.12 15.52 85.5 15.14 100.55 39.23 106.74"/><polyline class="cls-9" points="15.52 85.5 46.47 93.98 134.37 94.17 165.23 85.79"/><polyline class="cls-9" points="142.56 58.93 119.61 67.88 60.85 67.88 37.61 59.12"/><polyline class="cls-9" points="60.09 44.17 78.56 48.26 102.18 48.26 119.71 43.98"/><polyline class="cls-9" points="102.18 48.26 119.61 67.88 134.37 94.17 141.23 106.74"/><polyline class="cls-9" points="78.56 48.26 60.85 67.88 46.47 93.98 39.23 106.74"/><polygon class="cls-8" points="60.9 67.91 119.59 67.91 137.71 47.91 135.05 32.43 117.52 11.86 90.27 4.5 62.84 12.12 45.49 32.62 42.97 47.59 60.9 67.91"/><polygon class="cls-10" points="47.53 36.04 61.03 67.43 65.92 63.15 55.42 42.82 47.53 36.04"/><polyline class="cls-10" points="114.88 62.95 125.14 42.46 133.2 35.18 119.87 67.34 114.88 62.95"/><polygon class="cls-11" points="134.77 33.7 137.17 47.76 121.21 65.37 134.77 33.7"/><polygon class="cls-11" points="45.75 34.06 43.5 47.44 59.19 65.22 45.75 34.06"/><polygon class="cls-12" points="66.33 63.8 114.39 63.67 118.28 67.38 62.22 67.4 66.33 63.8"/><polygon class="cls-13" points="55.81 42.89 69.57 18.59 80.87 34.18 75.03 47.58 55.81 42.89"/><polyline class="cls-13" points="55.81 42.89 66.14 63.29 114.58 63.17 124.72 42.87 111.28 18.61 99.75 34.13"/><polyline class="cls-9" points="69.57 18.59 111.31 18.59 117.52 11.86"/><line class="cls-9" x1="66.14" y1="63.27" x2="114.61" y2="63.14"/><polyline class="cls-9" points="69.57 18.59 80.91 34.07 75.24 47.54 55.72 42.96 66.14 63.27 60.9 67.91 46.42 34.34 55.72 42.96 69.57 18.59 62.84 12.12"/><polyline class="cls-9" points="99.78 34.17 111.31 18.59 124.77 42.84 134.03 34.15 119.59 67.91 114.61 63.15 124.77 42.84"/><line class="cls-9" x1="105.24" y1="47.64" x2="124.77" y2="42.83"/><line class="cls-9" x1="99.73" y1="34.08" x2="105.24" y2="47.79"/><polygon class="cls-14" points="80.48 33.46 100.27 33.44 105.58 47.5 95.45 58.61 90.34 69.41 84.95 58.45 75.06 47.48 80.48 33.46"/><polyline class="cls-11" points="100.47 47.83 97.08 56.08 104.32 48.13 100.47 47.83"/><polyline class="cls-11" points="80.09 47.73 83.29 55.86 76.24 48.03 80.09 47.73"/><polygon class="cls-12" points="38.71 58.99 59.19 66.72 47.31 53.27 38.71 58.99"/><polygon class="cls-12" points="141.47 58.81 121.41 66.64 133.33 53.48 141.47 58.81"/><polygon class="cls-10" points="16.68 100.43 38.98 106.16 45.71 94.29 22.1 87.82 16.68 100.43"/><polygon class="cls-10" points="141.48 106.16 163.8 100.44 158.34 88.18 135.12 94.48 141.48 106.16"/><polygon class="cls-10" points="37.77 59.71 60.12 68.15 46.22 93.39 22.79 86.97 31.66 67.01 37.77 59.71"/><polygon class="cls-10" points="142.41 59.53 120.34 68.14 134.62 93.57 157.92 87.25 149.11 67.48 142.41 59.53"/><polyline class="cls-9" points="80.51 33.48 82.79 41.44 97.87 41.44 100.21 33.51"/><polyline class="cls-9" points="97.87 41.44 100.09 47.98 105.54 47.52"/><line class="cls-9" x1="100.09" y1="47.98" x2="95.07" y2="59.41"/><polyline class="cls-9" points="85.22 59.02 80.25 47.72 75.11 47.48"/><line class="cls-9" x1="80.25" y1="47.72" x2="82.79" y2="41.44"/><circle class="cls-15" cx="69.68" cy="33.67" r="2.55"/><circle class="cls-15" cx="109.68" cy="33.67" r="2.55"/><polygon class="cls-8" points="29.36 45.63 31.2 66.82 4.5 126.92 15.8 60.59 29.36 45.63"/><polyline class="cls-16" points="12.07 82.44 14.15 85.77 17.79 82.84 19.45 86.76 22.36 86.93 15.53 102.21 8.91 100.83 12.07 82.44"/><polygon class="cls-17" points="9.24 99.22 11.02 98.59 12.33 101.15 14.36 99.96 15.53 101.68 4.71 126.44 9.24 99.22"/><polygon class="cls-9" points="29.36 45.63 31.2 66.82 4.5 126.92 15.8 60.59 29.36 45.63"/><polygon class="cls-8" points="151.22 45.69 149.41 66.88 176.16 126.96 164.8 60.64 151.22 45.69"/><polyline class="cls-16" points="168.56 82.53 166.47 85.86 162.83 82.94 161.18 86.86 158.27 87.03 165.11 102.3 171.73 100.92 168.56 82.53"/><polygon class="cls-17" points="171.39 99.31 169.62 98.68 168.31 101.24 166.28 100.05 165.11 101.78 175.95 126.53 171.39 99.31"/><polygon class="cls-9" points="151.22 45.69 149.41 66.88 176.16 126.96 164.8 60.64 151.22 45.69"/><polygon class="cls-10" points="46.75 94.49 134.05 94.68 140.38 106.25 40.1 106.23 46.75 94.49"/><polygon class="cls-1" points="39.23 106.74 141.23 106.74 165.42 100.55 165.23 85.79 142.56 58.93 119.71 43.98 100.47 39.02 78.95 39.02 60.09 44.17 37.61 59.12 15.52 85.5 15.14 100.55 39.23 106.74"/><polyline class="cls-18" points="15.52 85.5 46.47 93.98 134.37 94.17 165.23 85.79"/><polyline class="cls-18" points="142.56 58.93 119.61 67.88 60.85 67.88 37.61 59.12"/><polyline class="cls-18" points="60.09 44.17 78.56 48.26 102.18 48.26 119.71 43.98"/><polyline class="cls-18" points="102.18 48.26 119.61 67.88 134.37 94.17 141.23 106.74"/><polyline class="cls-18" points="78.56 48.26 60.85 67.88 46.47 93.98 39.23 106.74"/><polygon class="cls-1" points="60.9 67.91 119.59 67.91 137.71 47.91 135.05 32.43 117.52 11.86 90.27 4.5 62.84 12.12 45.49 32.62 42.97 47.59 60.9 67.91"/><polygon class="cls-19" points="47.53 36.04 61.03 67.43 65.92 63.15 55.42 42.82 47.53 36.04"/><polyline class="cls-19" points="114.88 62.95 125.14 42.46 133.2 35.18 119.87 67.34 114.88 62.95"/><polygon class="cls-20" points="134.77 33.7 137.17 47.76 121.21 65.37 134.77 33.7"/><polygon class="cls-20" points="45.75 34.06 43.5 47.44 59.19 65.22 45.75 34.06"/><polygon class="cls-21" points="66.33 63.8 114.39 63.67 118.28 67.38 62.22 67.4 66.33 63.8"/><polygon class="cls-22" points="55.81 42.89 69.57 18.59 80.87 34.18 75.03 47.58 55.81 42.89"/><polyline class="cls-22" points="55.81 42.89 66.14 63.29 114.58 63.17 124.72 42.87 111.28 18.61 99.75 34.13"/><polyline class="cls-18" points="69.57 18.59 111.31 18.59 117.52 11.86"/><line class="cls-18" x1="66.14" y1="63.27" x2="114.61" y2="63.14"/><polyline class="cls-18" points="69.57 18.59 80.91 34.07 75.24 47.54 55.72 42.96 66.14 63.27 60.9 67.91 46.42 34.34 55.72 42.96 69.57 18.59 62.84 12.12"/><polyline class="cls-18" points="99.78 34.17 111.31 18.59 124.77 42.84 134.03 34.15 119.59 67.91 114.61 63.15 124.77 42.84"/><line class="cls-18" x1="105.24" y1="47.64" x2="124.77" y2="42.83"/><line class="cls-18" x1="99.73" y1="34.08" x2="105.24" y2="47.79"/><polygon class="cls-23" points="80.48 33.46 100.27 33.44 105.58 47.5 95.45 58.61 90.34 69.41 84.95 58.45 75.06 47.48 80.48 33.46"/><polyline class="cls-20" points="100.47 47.83 97.08 56.08 104.32 48.13 100.47 47.83"/><polyline class="cls-20" points="80.09 47.73 83.29 55.86 76.24 48.03 80.09 47.73"/><polygon class="cls-21" points="38.71 58.99 59.19 66.72 47.31 53.27 38.71 58.99"/><polygon class="cls-21" points="141.47 58.81 121.41 66.64 133.33 53.48 141.47 58.81"/><polygon class="cls-24" points="16.68 100.43 38.98 106.16 45.71 94.29 22.1 87.82 16.68 100.43"/><polygon class="cls-24" points="141.48 106.16 163.8 100.44 158.34 88.18 135.12 94.48 141.48 106.16"/><polygon class="cls-19" points="37.77 59.71 60.12 68.15 46.22 93.39 22.79 86.97 31.66 67.01 37.77 59.71"/><polygon class="cls-19" points="142.41 59.53 120.34 68.14 134.62 93.57 157.92 87.25 149.11 67.48 142.41 59.53"/><polyline class="cls-18" points="80.51 33.48 82.79 41.44 97.87 41.44 100.21 33.51"/><polyline class="cls-18" points="97.87 41.44 100.09 47.98 105.54 47.52"/><line class="cls-18" x1="100.09" y1="47.98" x2="95.07" y2="59.41"/><polyline class="cls-18" points="85.22 59.02 80.25 47.72 75.11 47.48"/><line class="cls-18" x1="80.25" y1="47.72" x2="82.79" y2="41.44"/><circle class="cls-25" cx="69.68" cy="33.67" r="2.55"/><circle class="cls-25" cx="109.68" cy="33.67" r="2.55"/><polygon class="cls-1" points="29.36 45.63 31.2 66.82 4.5 126.92 15.8 60.59 29.36 45.63"/><polyline class="cls-26" points="12.07 82.44 14.15 85.77 17.79 82.84 19.45 86.76 22.36 86.93 15.53 102.21 8.91 100.83 12.07 82.44"/><polygon class="cls-27" points="9.24 99.22 11.02 98.59 12.33 101.15 14.36 99.96 15.53 101.68 4.71 126.44 9.24 99.22"/><polygon class="cls-18" points="29.36 45.63 31.2 66.82 4.5 126.92 15.8 60.59 29.36 45.63"/><polygon class="cls-1" points="151.22 45.69 149.41 66.88 176.16 126.96 164.8 60.64 151.22 45.69"/><polyline class="cls-26" points="168.56 82.53 166.47 85.86 162.83 82.94 161.18 86.86 158.27 87.03 165.11 102.3 171.73 100.92 168.56 82.53"/><polygon class="cls-27" points="171.39 99.31 169.62 98.68 168.31 101.24 166.28 100.05 165.11 101.78 175.95 126.53 171.39 99.31"/><polygon class="cls-18" points="151.22 45.69 149.41 66.88 176.16 126.96 164.8 60.64 151.22 45.69"/><polygon class="cls-28" points="46.75 94.49 134.05 94.68 140.38 106.25 40.1 106.23 46.75 94.49"/></g></g></svg>